<svg xmlns="http://www.w3.org/2000/svg" xmlns:xlink="http://www.w3.org/1999/xlink"><defs><style>
    .sprite-symbol-usage {display: none;}
    .sprite-symbol-usage:target {display: inline;}
  </style><symbol fill="none" viewBox="0 0 10 6" id="arrow-d_sprite"><path fill="white" d="M10 .904 5 6 0 .904.887 0 5 4.191 9.113 0 10 .904Z" /></symbol><symbol fill="none" viewBox="0 0 19 20" id="close_sprite"><path stroke="currentColor" stroke-width="2" d="m1 1 18 18m0-18L1 19" /></symbol><symbol fill="none" viewBox="0 0 39 12" id="menu_sprite"><path stroke="white" stroke-width="2" d="M13 1h26M0 11h39" /></symbol><symbol fill="none" viewBox="0 0 28 32" id="slider-left_sprite"><path fill="currentColor" d="M6.26 16.751h16.334c.362 0 .656-.336.656-.75s-.294-.75-.656-.75H6.26c-.362 0-.656.336-.656.75s.294.75.656.75Z" /><path fill="currentColor" d="M12.1 21.536a.627.627 0 0 0 .51-.279c.228-.322.184-.794-.098-1.055l-4.81-4.434 4.81-4.434c.282-.26.326-.732.099-1.055-.228-.322-.64-.373-.923-.113l-5.444 5.018a.795.795 0 0 0-.244.584c0 .227.09.441.244.584l5.444 5.018a.605.605 0 0 0 .412.166Z" /></symbol><symbol fill="none" viewBox="0 0 28 32" id="slider-right_sprite"><path fill="currentColor" d="M22.595 16.751H6.262c-.363 0-.657-.336-.657-.75s.294-.75.657-.75h16.333c.362 0 .656.336.656.75s-.294.75-.656.75Z" /><path fill="currentColor" d="M17.149 21.769a.627.627 0 0 1-.511-.28c-.228-.322-.184-.794.098-1.054l4.811-4.434-4.81-4.435c-.283-.26-.327-.732-.1-1.054.228-.323.641-.373.924-.113l5.443 5.018a.795.795 0 0 1 .244.583c0 .227-.09.442-.244.584l-5.444 5.018a.605.605 0 0 1-.411.167Z" /></symbol><symbol fill="none" viewBox="0 0 100 100" id="thankyou_sprite"><g clip-path="url(#clip0_458_575)"><path stroke="white" stroke-linecap="round" stroke-linejoin="round" stroke-width="4" d="m37.5 49.999 8.333 8.333 16.666-16.666" /><circle cx="49.999" cy="49.999" r="39.667" stroke="white" stroke-width="4" /></g></symbol></defs><use id="arrow-d_sprite-usage" xlink:href="#arrow-d_sprite" class="sprite-symbol-usage" /><use id="close_sprite-usage" xlink:href="#close_sprite" class="sprite-symbol-usage" /><use id="menu_sprite-usage" xlink:href="#menu_sprite" class="sprite-symbol-usage" /><use id="slider-left_sprite-usage" xlink:href="#slider-left_sprite" class="sprite-symbol-usage" /><use id="slider-right_sprite-usage" xlink:href="#slider-right_sprite" class="sprite-symbol-usage" /><use id="thankyou_sprite-usage" xlink:href="#thankyou_sprite" class="sprite-symbol-usage" /></svg>